<?xml version="1.0" standalone="no"?><!DOCTYPE svg PUBLIC "-//W3C//DTD SVG 1.1//EN" "http://www.w3.org/Graphics/SVG/1.1/DTD/svg11.dtd"><svg t="1724167369859" class="icon" viewBox="0 0 1024 1024" version="1.1" xmlns="http://www.w3.org/2000/svg" p-id="1531" xmlns:xlink="http://www.w3.org/1999/xlink" width="200" height="200"><path d="M477.198 110.662c64.86 38.502 171.09 96.992 244.242 141.068L916.65 20h-372.5l-66.952 90.662z" fill="#FFD3A3" p-id="1532"></path><path d="M721.44 251.73c-73.152-44.074-179.382-102.566-244.242-141.068L359.384 270.2c17.756 29.768 40.67 54.912 63.174 71.614 59.274 43.994 153.404 32.518 193.844 34.608l105.038-124.692z" fill="#F0F0F0" p-id="1533"></path><path d="M501.586 813.122L122.952 441.388l-60.542 59.666L488.642 920.238c131.696 105.202 313.502 85.052 472.94 76.1l-2.146-80.792c-166.01 2.128-329.996 28.094-457.85-102.424z" fill="#E0A990" p-id="1534"></path><path d="M122.868 440.646L501.502 812.38c118.846 121.32 268.908 107.434 422.798 103.166 0.03-5.854-0.218-15.232-0.062-24.13 2.586-146.468-199.626-144.45-253.96-203.81l-16.254-93.958-14.838-85.77-22.872-132.2c-158.866 10.954-242.088-37.324-283.08-167.17L122.868 440.646z" fill="#AD826E" p-id="1535"></path><path d="M979.428 915.016c-0.286-10.848-9.168-19.468-19.986-19.468l-0.262 0.002c-4.96 0.064-9.932 0.156-14.898 0.256 0.008-1.074 0.018-2.162 0.038-3.296 0.87-49.186-19.136-89.636-59.46-120.228-33.398-25.338-76.468-41.144-114.468-55.09-33.236-12.198-64.77-23.77-81.412-38.558l-51.284-296.444L931.946 32.886A19.998 19.998 0 0 0 916.65 0h-372.5a19.992 19.992 0 0 0-16.088 8.12l-66.902 90.596-0.05 0.068-98.64 133.574c-4.03-9.396-7.328-18.848-9.816-28.232a20 20 0 0 0-34.152-8.306L108.51 427.542l-60.136 59.268a20 20 0 0 0 0.016 28.502l247.452 243.36h-88.604c-11.044 0-20 8.954-20 20s8.956 20 20 20h129.276l62.086 61.06h-93.428c-11.044 0-20 8.954-20 20s8.956 20 20 20h134.102l35.348 34.764c0.49 0.482 1.004 0.938 1.542 1.366 97.788 78.114 218.356 88.132 312.47 88.134h0.018c46.544 0 93.134-2.83 138.186-5.568 12.06-0.732 24.026-1.458 35.87-2.124a20 20 0 0 0 18.872-20.5l-2.152-80.788zM482.582 137.04c26.234 15.338 57.204 32.964 89.684 51.45 40.678 23.152 82.492 46.954 118.712 68.362l-83.966 99.674c-2.856 0.034-5.728 0.06-8.568 0.096-64.546 0.826-120.296 1.54-163.964-30.87-18.662-13.85-36.364-33.014-50.872-54.684L482.582 137.04zM554.244 40h319.408l-156.548 185.836c-37.802-22.452-82.068-47.646-125.052-72.11-30.852-17.56-60.334-34.34-85.568-49.05L554.244 40zM325.496 247.668a268.184 268.184 0 0 0 6.57 14.22 278.136 278.136 0 0 0 8.676 16.012c0.736 1.822 1.746 3.54 3.022 5.104 18.114 29.642 41.71 56.196 66.876 74.87 54.512 40.46 119.51 39.628 188.316 38.746l0.64-0.008 15.916 92.006h-91.442c-11.044 0-20 8.954-20 20s8.954 20 20 20h98.364l7.918 45.772h-75.16c-11.044 0-20 8.954-20 20s8.956 20 20 20h82.08l13.384 77.368a20.002 20.002 0 0 0 4.954 10.094c21.808 23.828 60.276 37.944 101 52.89 73.338 26.914 149.172 54.746 147.718 137.06a353.16 353.16 0 0 0-0.05 5.08l-11.71 0.37c-27.294 0.872-55.52 1.778-82.666 1.778-117.742 0-212.802-16.99-294.028-99.904a17.954 17.954 0 0 0-0.276-0.276L150.676 440.58l174.82-192.912z m598.914 730.838c-44.46 2.7-90.428 5.494-135.762 5.494h-0.016c-87.328-0.002-198.752-8.97-286.712-78.754L90.92 501.04l32.06-31.596L487.438 827.26c96.32 98.224 211.902 111.77 322.46 111.77 27.788 0 56.336-0.914 83.946-1.798 15.14-0.484 30.642-0.98 46.126-1.33l1.106 41.598c-5.534 0.33-11.09 0.666-16.666 1.006zM145.196 758.674h-1.024c-11.044 0-20 8.954-20 20s8.956 20 20 20h1.024c11.044 0 20-8.954 20-20s-8.954-20-20-20zM245.27 859.734h-1.026c-11.044 0-20 8.954-20 20s8.956 20 20 20h1.026c11.046 0 20-8.954 20-20s-8.954-20-20-20z" fill="" p-id="1536"></path></svg>