<?xml version="1.0" standalone="no"?><!DOCTYPE svg PUBLIC "-//W3C//DTD SVG 1.1//EN" "http://www.w3.org/Graphics/SVG/1.1/DTD/svg11.dtd"><svg t="1724167434752" class="icon" viewBox="0 0 1024 1024" version="1.1" xmlns="http://www.w3.org/2000/svg" p-id="3744" xmlns:xlink="http://www.w3.org/1999/xlink" width="200" height="200"><path d="M249.987854 163.482341C418.648247-5.09798 698.15634-81.140623 901.648482 122.351518s127.422807 483.000235-41.130823 651.71401a423.02557 423.02557 0 0 1-603.216473-7.233259A423.078952 423.078952 0 0 1 249.987854 163.482341z" fill="#FFB74D" p-id="3745"></path><path d="M135.643634 1024a176.774456 176.774456 0 0 1-81.914662-53.889118A175.519979 175.519979 0 0 1 0 888.356366l664.258778-596.43696 67.821816 67.821816z" fill="#FFB74D" p-id="3746"></path><path d="M616.508589 893.214127a413.710413 413.710413 0 0 0 243.982379-119.17529c168.580321-168.580321 244.622964-448.088414 41.130823-651.580555S418.621556-5.09798 250.041236 163.45565a414.110778 414.110778 0 0 0-119.308745 243.928997z" fill="#F44336" p-id="3747"></path><path d="M720.656849 516.871106m-80.072983 0a80.072983 80.072983 0 1 0 160.145966 0 80.072983 80.072983 0 1 0-160.145966 0Z" fill="#D32F2F" p-id="3748"></path><path d="M720.656849 463.489118m-80.072983 0a80.072983 80.072983 0 1 0 160.145966 0 80.072983 80.072983 0 1 0-160.145966 0Z" fill="#FFFFFF" p-id="3749"></path><path d="M720.656849 490.180112a79.806073 79.806073 0 0 1-75.161841-53.381989A79.058725 79.058725 0 0 0 640.583866 463.489118a80.072983 80.072983 0 0 0 160.145966 0 79.058725 79.058725 0 0 0-4.911143-26.690995A79.806073 79.806073 0 0 1 720.656849 490.180112z" fill="#CFD8DC" p-id="3750"></path></svg>